<svg width="110" height="18" viewBox="0 0 110 18" fill="none" xmlns="http://www.w3.org/2000/svg">
<path d="M0.367188 14L3.14711 0.94144H7.55603C8.61252 0.94144 9.39751 1.17753 9.911 1.6497C10.4245 2.11597 10.6812 2.73865 10.6812 3.51774C10.6812 3.98401 10.6075 4.45618 10.4599 4.93426C10.3123 5.41234 10.1028 5.855 9.83132 6.26225C9.55982 6.6695 9.2352 7.00592 8.85746 7.27152C8.48563 7.53712 8.07543 7.69353 7.62686 7.74074C7.89836 7.76435 8.1492 7.83223 8.37939 7.94437C8.61547 8.05061 8.80434 8.21882 8.946 8.449C9.09355 8.67329 9.16733 8.97135 9.16733 9.34318C9.16733 9.50254 9.14077 9.72387 9.08765 10.0072C9.03453 10.2905 8.9696 10.6062 8.89288 10.9545C8.81615 11.2968 8.73942 11.6421 8.66269 11.9903C8.58596 12.3326 8.52104 12.6484 8.46792 12.9376C8.4148 13.2268 8.38824 13.454 8.38824 13.6193C8.38824 13.7078 8.39119 13.7875 8.39709 13.8583C8.4089 13.9233 8.42365 13.9705 8.44136 14H6.9186C6.88909 13.9233 6.87433 13.8052 6.87433 13.6459C6.87433 13.4924 6.89794 13.2829 6.94516 13.0173C6.99828 12.7458 7.06025 12.4536 7.13108 12.1408C7.20781 11.8221 7.28158 11.5063 7.35241 11.1935C7.42323 10.8748 7.48226 10.5826 7.52947 10.317C7.58259 10.0514 7.60915 9.84487 7.60915 9.69731C7.60915 9.24875 7.44979 8.92413 7.13108 8.72345C6.81236 8.52278 6.37265 8.42244 5.81194 8.42244H2.36802L3.14711 7.9001L1.84568 14H0.367188ZM3.20908 7.59909L2.61592 7.09446H6.1041C6.6589 7.09446 7.16059 6.9528 7.60915 6.6695C8.05772 6.38619 8.4148 6.01141 8.6804 5.54514C8.946 5.07886 9.0788 4.56833 9.0788 4.01352C9.0788 3.47052 8.92239 3.04556 8.60957 2.73865C8.29676 2.42584 7.78917 2.26943 7.08681 2.26943H3.69601L4.51937 1.41952L3.20908 7.59909Z" fill="#41197F"/>
<path d="M15.3775 2.26943L16.2362 1.41066L14.9879 7.30693L14.7223 6.78459H19.7333L19.4588 8.11258H14.4479L14.926 7.59024L13.6688 13.5308L13.1642 12.672H19.4677L19.1844 14H12.0486L14.8286 0.94144H21.9643L21.681 2.26943H15.3775Z" fill="#41197F"/>
<path d="M32.3496 9.45828C32.2374 9.98357 32.0309 10.5236 31.7299 11.0784C31.4347 11.6273 31.0452 12.1379 30.5612 12.61C30.0832 13.0763 29.5224 13.454 28.8791 13.7433C28.2358 14.0325 27.5128 14.1771 26.7101 14.1771C25.7834 14.1771 25.022 13.9734 24.4259 13.5662C23.8357 13.1589 23.3989 12.6012 23.1156 11.8929C22.8382 11.1788 22.6995 10.3672 22.6995 9.45828C22.6995 8.35457 22.85 7.28628 23.1511 6.2534C23.458 5.22052 23.8977 4.29387 24.4702 3.47347C25.0486 2.64717 25.7451 1.99203 26.5596 1.50805C27.38 1.02407 28.3036 0.782082 29.3306 0.782082C30.2868 0.782082 31.0541 0.976853 31.6325 1.3664C32.2168 1.75004 32.6388 2.23992 32.8985 2.83604C33.1582 3.43216 33.288 4.04598 33.288 4.67752C33.288 4.83687 33.2792 4.98443 33.2615 5.12018C33.2438 5.25593 33.2202 5.37692 33.1906 5.48316H31.6767C31.6944 5.39463 31.7122 5.27659 31.7299 5.12903C31.7535 4.97558 31.7653 4.83392 31.7653 4.70407C31.7653 4.2319 31.6708 3.80399 31.482 3.42035C31.299 3.03671 31.0157 2.7298 30.6321 2.49961C30.2484 2.26943 29.7585 2.15434 29.1624 2.15434C28.3656 2.15434 27.6603 2.36681 27.0465 2.79177C26.4327 3.21673 25.9162 3.78334 25.4972 4.4916C25.0781 5.19986 24.7623 5.9878 24.5499 6.85542C24.3374 7.71713 24.2311 8.58771 24.2311 9.46713C24.2311 10.5531 24.4466 11.3824 24.8774 11.9549C25.3083 12.5274 25.9693 12.8137 26.8606 12.8137C27.3859 12.8137 27.8698 12.7192 28.3125 12.5304C28.7611 12.3356 29.1565 12.0759 29.4988 11.7513C29.8471 11.4267 30.1333 11.0666 30.3576 10.6712C30.5878 10.2698 30.7471 9.86553 30.8357 9.45828H32.3496Z" fill="#41197F"/>
<path d="M34.5651 14L37.3362 0.94144H38.8324L36.0702 14H34.5651Z" fill="#41197F"/>
<path d="M41.3099 14H39.796L42.5759 0.94144H46.1526C47.0439 0.94144 47.7639 1.0949 48.3128 1.40181C48.8617 1.70872 49.2631 2.12187 49.5169 2.64127C49.7766 3.15475 49.9064 3.72727 49.9064 4.3588C49.9064 5.13789 49.7766 5.84024 49.5169 6.46587C49.2572 7.0856 48.8883 7.61975 48.4102 8.06831C47.9322 8.51098 47.3626 8.85035 46.7015 9.08644C46.0464 9.32253 45.3204 9.44057 44.5236 9.44057H42.2838L41.3099 14ZM42.3989 8.88281L41.8854 8.11258H44.5325C45.3175 8.11258 45.9992 7.95617 46.5776 7.64336C47.156 7.33054 47.6046 6.89378 47.9233 6.33307C48.242 5.77237 48.4014 5.11723 48.4014 4.36765C48.4014 3.91909 48.3099 3.54135 48.1269 3.23443C47.9499 2.92162 47.6666 2.68258 47.277 2.51732C46.8934 2.35206 46.3917 2.26943 45.772 2.26943H43.1248L43.9836 1.41066L42.3989 8.88281Z" fill="#41197F"/>
<path d="M54.4605 2.26943L55.3192 1.41066L54.0709 7.30693L53.8053 6.78459H58.8163L58.5418 8.11258H53.5309L54.0089 7.59024L52.7518 13.5308L52.2472 12.672H58.5507L58.2674 14H51.1316L53.9116 0.94144H61.0473L60.764 2.26943H54.4605Z" fill="#41197F"/>
<path d="M65.7297 14.1771C64.9801 14.1771 64.3279 14.0708 63.7731 13.8583C63.2183 13.64 62.7904 13.3212 62.4894 12.9022C62.1884 12.4772 62.0379 11.9519 62.0379 11.3263C62.0379 11.0371 62.0585 10.7715 62.0999 10.5295C62.1471 10.2875 62.209 10.0072 62.2858 9.68846H63.7908C63.7141 9.99537 63.658 10.2551 63.6226 10.4675C63.5931 10.68 63.5784 10.8896 63.5784 11.0961C63.5784 11.7218 63.7731 12.1644 64.1627 12.4241C64.5581 12.6838 65.1306 12.8137 65.8802 12.8137C66.5176 12.8137 67.0872 12.7281 67.5889 12.5569C68.0906 12.3799 68.486 12.1113 68.7752 11.7513C69.0644 11.3853 69.209 10.9161 69.209 10.3436C69.209 9.7829 68.9788 9.32253 68.5185 8.96249C68.064 8.60246 67.4443 8.29555 66.6593 8.04175C66.0632 7.84108 65.5261 7.59319 65.048 7.29808C64.5758 6.99707 64.201 6.63409 63.9236 6.20913C63.6521 5.78417 63.5164 5.29134 63.5164 4.73063C63.5164 4.0991 63.6374 3.5384 63.8794 3.04852C64.1273 2.55864 64.4696 2.14548 64.9063 1.80906C65.3431 1.47264 65.8507 1.21884 66.4291 1.04768C67.0075 0.870614 67.6331 0.782082 68.306 0.782082C69.0556 0.782082 69.7048 0.888321 70.2537 1.1008C70.8085 1.30737 71.2364 1.61429 71.5374 2.02154C71.8384 2.42879 71.9889 2.93342 71.9889 3.53544C71.9889 3.79514 71.9683 4.05484 71.927 4.31453C71.8857 4.57423 71.8325 4.84573 71.7676 5.12903H70.2537C70.3186 4.85753 70.3659 4.61554 70.3954 4.40306C70.4308 4.18468 70.4485 3.96925 70.4485 3.75678C70.4485 3.15475 70.2508 2.7357 69.8553 2.49961C69.4599 2.26353 68.8903 2.14548 68.1466 2.14548C67.5446 2.14548 67.0075 2.22516 66.5353 2.38452C66.0632 2.54388 65.6913 2.79472 65.4198 3.13705C65.1483 3.47347 65.0126 3.91318 65.0126 4.45618C65.0126 5.07591 65.2546 5.56284 65.7385 5.91697C66.2225 6.2652 66.8688 6.58097 67.6774 6.86427C68.3089 7.08265 68.8519 7.3394 69.3064 7.6345C69.7609 7.92961 70.1091 8.27784 70.3511 8.67919C70.599 9.08054 70.7229 9.54976 70.7229 10.0869C70.7229 10.9545 70.5016 11.6952 70.0589 12.309C69.6222 12.9169 69.0261 13.3803 68.2706 13.699C67.521 14.0177 66.674 14.1771 65.7297 14.1771Z" fill="#41197F"/>
<path d="M80.012 14.1976C79.3534 14.1976 78.7663 14.0945 78.2509 13.8883C77.7354 13.6764 77.3288 13.37 77.031 12.9691C76.7331 12.5682 76.5842 12.0814 76.5842 11.5086C76.5842 10.85 76.7704 10.3174 77.1426 9.91073C77.5149 9.49836 77.9989 9.18623 78.5945 8.97432C79.1901 8.75668 79.8201 8.61636 80.4845 8.55336C81.4467 8.46173 82.1025 8.38155 82.4518 8.31282C82.8069 8.23836 82.9845 8.11236 82.9845 7.93482C82.9845 7.92909 82.9845 7.92623 82.9845 7.92623C82.9845 7.9205 82.9845 7.91764 82.9845 7.91764C82.9845 7.64273 82.8384 7.41936 82.5463 7.24755C82.26 7.07573 81.8648 6.98982 81.3608 6.98982C80.8281 6.98982 80.4244 7.08718 80.1495 7.28191C79.8803 7.47091 79.7457 7.76014 79.7457 8.14959H76.7217C76.7217 7.39932 76.9279 6.76932 77.3402 6.25959C77.7583 5.74414 78.3196 5.35468 79.024 5.09123C79.7285 4.82777 80.516 4.69604 81.3865 4.69604C82.2113 4.69604 82.9759 4.81918 83.6803 5.06545C84.3905 5.31173 84.9632 5.68686 85.3985 6.19086C85.8395 6.69486 86.06 7.33632 86.06 8.11523C86.06 8.2355 86.06 8.35577 86.06 8.47605C86.06 8.59632 86.06 8.71659 86.06 8.83686V11.8609C86.06 12.1014 86.0657 12.3362 86.0772 12.5653C86.0886 12.7887 86.1201 12.9949 86.1717 13.1839C86.2347 13.39 86.312 13.5647 86.4036 13.7079C86.501 13.8511 86.5783 13.9485 86.6356 14H83.6374C83.5915 13.9542 83.5228 13.8654 83.4312 13.7337C83.3453 13.602 83.2708 13.4502 83.2078 13.2784C83.1334 13.0493 83.079 12.8288 83.0446 12.6169C83.0102 12.3992 82.993 12.1415 82.993 11.8437L83.646 12.2904C83.4856 12.6856 83.2221 13.0264 82.8556 13.3127C82.4948 13.5991 82.0681 13.8196 81.5755 13.9742C81.083 14.1231 80.5618 14.1976 80.012 14.1976ZM80.8883 11.9725C81.2434 11.9725 81.5841 11.901 81.9106 11.7578C82.237 11.6146 82.5062 11.3855 82.7181 11.0705C82.93 10.7555 83.036 10.3345 83.036 9.80764V9.1805L83.8092 9.86777C83.4312 9.9995 83.0016 10.1112 82.5205 10.2028C82.0395 10.2887 81.5698 10.3546 81.1116 10.4004C80.6248 10.452 80.2611 10.535 80.0206 10.6495C79.78 10.7641 79.6598 10.9531 79.6598 11.2165C79.6598 11.4685 79.7629 11.6575 79.969 11.7835C80.181 11.9095 80.4874 11.9725 80.8883 11.9725Z" fill="#41197F"/>
<path d="M87.8433 17.7542V4.87645H90.9102V17.7542H87.8433ZM93.6679 14.2148C92.9463 14.2148 92.2848 14.0172 91.6834 13.622C91.0878 13.2211 90.6124 12.6856 90.2573 12.0155C89.9022 11.3397 89.7247 10.5865 89.7247 9.75609C89.7247 9.73318 89.7247 9.71027 89.7247 9.68736C89.7247 9.65873 89.7247 9.63009 89.7247 9.60145L90.9102 9.57568C90.9102 9.59286 90.9102 9.61291 90.9102 9.63582C90.9102 9.653 90.9102 9.66732 90.9102 9.67877C90.9102 10.0797 91.0019 10.4262 91.1851 10.7183C91.3741 11.0046 91.6147 11.2251 91.9068 11.3798C92.2046 11.5287 92.511 11.6031 92.826 11.6031C93.3357 11.6031 93.7882 11.4256 94.1834 11.0705C94.5786 10.7154 94.7761 10.1541 94.7761 9.38668C94.7761 8.61923 94.5786 8.06655 94.1834 7.72864C93.7939 7.385 93.3415 7.21318 92.826 7.21318C92.5167 7.21318 92.2132 7.28764 91.9154 7.43654C91.6233 7.57973 91.3827 7.79164 91.1937 8.07227C91.0047 8.34718 90.9102 8.68795 90.9102 9.09459L89.7247 9.01727C89.7247 8.18109 89.9022 7.43941 90.2573 6.79223C90.6124 6.14505 91.0878 5.63532 91.6834 5.26304C92.2848 4.88504 92.9463 4.69604 93.6679 4.69604C94.4067 4.69604 95.0997 4.87645 95.7469 5.23727C96.3998 5.59809 96.9267 6.12786 97.3276 6.82659C97.7343 7.52532 97.9376 8.37868 97.9376 9.38668C97.9376 10.4462 97.74 11.334 97.3448 12.0499C96.9496 12.7658 96.4285 13.307 95.7813 13.6735C95.1341 14.0344 94.4296 14.2148 93.6679 14.2148Z" fill="#41197F"/>
<path d="M99.4041 17.7542V4.87645H102.471V17.7542H99.4041ZM105.229 14.2148C104.507 14.2148 103.846 14.0172 103.244 13.622C102.649 13.2211 102.173 12.6856 101.818 12.0155C101.463 11.3397 101.286 10.5865 101.286 9.75609C101.286 9.73318 101.286 9.71027 101.286 9.68736C101.286 9.65873 101.286 9.63009 101.286 9.60145L102.471 9.57568C102.471 9.59286 102.471 9.61291 102.471 9.63582C102.471 9.653 102.471 9.66732 102.471 9.67877C102.471 10.0797 102.563 10.4262 102.746 10.7183C102.935 11.0046 103.176 11.2251 103.468 11.3798C103.765 11.5287 104.072 11.6031 104.387 11.6031C104.897 11.6031 105.349 11.4256 105.744 11.0705C106.139 10.7154 106.337 10.1541 106.337 9.38668C106.337 8.61923 106.139 8.06655 105.744 7.72864C105.355 7.385 104.902 7.21318 104.387 7.21318C104.078 7.21318 103.774 7.28764 103.476 7.43654C103.184 7.57973 102.944 7.79164 102.755 8.07227C102.566 8.34718 102.471 8.68795 102.471 9.09459L101.286 9.01727C101.286 8.18109 101.463 7.43941 101.818 6.79223C102.173 6.14505 102.649 5.63532 103.244 5.26304C103.846 4.88504 104.507 4.69604 105.229 4.69604C105.968 4.69604 106.661 4.87645 107.308 5.23727C107.961 5.59809 108.488 6.12786 108.888 6.82659C109.295 7.52532 109.498 8.37868 109.498 9.38668C109.498 10.4462 109.301 11.334 108.906 12.0499C108.51 12.7658 107.989 13.307 107.342 13.6735C106.695 14.0344 105.99 14.2148 105.229 14.2148Z" fill="#41197F"/>
</svg>
